# xmcd
#
# Track frame offsets: 
#        150
#        3899
#        24981
#        40514
#        62929
#        78391
#        92878
#        107902
#        124066
#        137097
#
# Disc length: 2023 seconds
#
# Revision: 0
# Processed by: cddbd v1.5.2PL0 Copyright (c) Steve Scherf et al.
# Submitted via: ExactAudioCopyFreeDBPlugin 1.0
#
DISCID=7807e50a
DTITLE=Chris Walker Band - Chris Walker Band
DYEAR=2012
DGENRE=Blues
TTITLE0=Intro
TTITLE1=Can You Hear Me
TTITLE2=She Left Again
TTITLE3=Hope
TTITLE4=You Make Love A Crime
TTITLE5=Ralphsong
TTITLE6=When You Lie, You're Telling The Truth
TTITLE7=House of Sorrow
TTITLE8=Found
TTITLE9=Escape
EXTD=
EXTT0=
EXTT1=
EXTT2=
EXTT3=
EXTT4=
EXTT5=
EXTT6=
EXTT7=
EXTT8=
EXTT9=
PLAYORDER=
